<svg width="192" height="127" viewBox="0 0 192 127" fill="none" xmlns="http://www.w3.org/2000/svg">
<path d="M18.3637 49H2.59094V2.45453H18.6819C23.3031 2.45453 27.2728 3.38635 30.5909 5.24998C33.9243 7.09847 36.4849 9.75756 38.2728 13.2273C40.0606 16.697 40.9546 20.8485 40.9546 25.6818C40.9546 30.5303 40.0531 34.697 38.25 38.1818C36.4622 41.6666 33.8788 44.3409 30.5 46.2045C27.1364 48.0682 23.0909 49 18.3637 49ZM11.0228 41.7045H17.9546C21.197 41.7045 23.9015 41.1136 26.0682 39.9318C28.2349 38.7348 29.8637 36.9545 30.9546 34.5909C32.0455 32.2121 32.5909 29.2424 32.5909 25.6818C32.5909 22.1212 32.0455 19.1667 30.9546 16.8182C29.8637 14.4545 28.25 12.6894 26.1137 11.5227C23.9925 10.3409 21.3561 9.74998 18.2046 9.74998H11.0228V41.7045Z" fill="white"/>
<path d="M48.6023 49V14.0909H56.8296V49H48.6023ZM52.7387 9.13635C51.4356 9.13635 50.3144 8.70453 49.375 7.84089C48.4356 6.9621 47.9659 5.90907 47.9659 4.6818C47.9659 3.43938 48.4356 2.38635 49.375 1.52271C50.3144 0.643922 51.4356 0.204529 52.7387 0.204529C54.0569 0.204529 55.1781 0.643922 56.1023 1.52271C57.0417 2.38635 57.5114 3.43938 57.5114 4.6818C57.5114 5.90907 57.0417 6.9621 56.1023 7.84089C55.1781 8.70453 54.0569 9.13635 52.7387 9.13635Z" fill="white"/>
<path d="M80.4716 62.8182C77.5171 62.8182 74.9792 62.4167 72.858 61.6136C70.7368 60.8257 69.0322 59.7651 67.7443 58.4318C66.4565 57.0985 65.5625 55.6212 65.0625 54L72.4716 52.2045C72.805 52.8863 73.2898 53.5606 73.9262 54.2273C74.5625 54.9091 75.4186 55.4697 76.4943 55.9091C77.5853 56.3636 78.9565 56.5909 80.608 56.5909C82.9413 56.5909 84.8731 56.0227 86.4034 54.8864C87.9337 53.7651 88.6989 51.9167 88.6989 49.3409V42.7273H88.2898C87.8656 43.5757 87.2444 44.447 86.4262 45.3409C85.6231 46.2348 84.555 46.9848 83.2216 47.5909C81.9034 48.197 80.2443 48.5 78.2443 48.5C75.5625 48.5 73.1307 47.8712 70.9489 46.6136C68.7822 45.3409 67.055 43.447 65.7671 40.9318C64.4943 38.4015 63.858 35.2348 63.858 31.4318C63.858 27.5985 64.4943 24.3636 65.7671 21.7273C67.055 19.0757 68.7898 17.0682 70.9716 15.7045C73.1534 14.3257 75.5853 13.6363 78.2671 13.6363C80.3125 13.6363 81.9943 13.9848 83.3125 14.6818C84.6459 15.3636 85.7065 16.1894 86.4943 17.1591C87.2822 18.1136 87.8807 19.0151 88.2898 19.8636H88.7444V14.0909H96.858V49.5682C96.858 52.553 96.1459 55.0227 94.7216 56.9773C93.2974 58.9318 91.3504 60.3939 88.8807 61.3636C86.411 62.3333 83.608 62.8182 80.4716 62.8182ZM80.5398 42.0454C82.2822 42.0454 83.7671 41.6212 84.9943 40.7727C86.2216 39.9242 87.1534 38.7045 87.7898 37.1136C88.4262 35.5227 88.7444 33.6136 88.7444 31.3863C88.7444 29.1894 88.4262 27.2651 87.7898 25.6136C87.1686 23.9621 86.2443 22.6818 85.0171 21.7727C83.805 20.8485 82.3125 20.3863 80.5398 20.3863C78.7065 20.3863 77.1762 20.8636 75.9489 21.8182C74.7216 22.7727 73.7974 24.0833 73.1762 25.75C72.555 27.4015 72.2443 29.2803 72.2443 31.3863C72.2443 33.5227 72.555 35.3939 73.1762 37C73.8125 38.5909 74.7443 39.8333 75.9716 40.7273C77.214 41.606 78.7368 42.0454 80.5398 42.0454Z" fill="white"/>
<path d="M105.29 49V14.0909H113.517V49H105.29ZM109.426 9.13635C108.123 9.13635 107.002 8.70453 106.063 7.84089C105.123 6.9621 104.653 5.90907 104.653 4.6818C104.653 3.43938 105.123 2.38635 106.063 1.52271C107.002 0.643922 108.123 0.204529 109.426 0.204529C110.744 0.204529 111.866 0.643922 112.79 1.52271C113.729 2.38635 114.199 3.43938 114.199 4.6818C114.199 5.90907 113.729 6.9621 112.79 7.84089C111.866 8.70453 110.744 9.13635 109.426 9.13635Z" fill="white"/>
<path d="M139.409 14.0909V20.4545H119.341V14.0909H139.409ZM124.295 5.72726H132.523V38.5C132.523 39.606 132.689 40.4545 133.023 41.0454C133.371 41.6212 133.826 42.0151 134.386 42.2273C134.947 42.4394 135.568 42.5454 136.25 42.5454C136.765 42.5454 137.235 42.5076 137.659 42.4318C138.099 42.356 138.432 42.2879 138.659 42.2273L140.045 48.6591C139.606 48.8106 138.977 48.9773 138.159 49.1591C137.356 49.3409 136.371 49.447 135.205 49.4773C133.144 49.5379 131.288 49.2273 129.636 48.5454C127.985 47.8485 126.674 46.7727 125.705 45.3182C124.75 43.8636 124.28 42.0454 124.295 39.8636V5.72726Z" fill="white"/>
<path d="M156.335 49.7045C154.123 49.7045 152.131 49.3106 150.358 48.5227C148.6 47.7197 147.206 46.5379 146.176 44.9773C145.161 43.4167 144.653 41.4924 144.653 39.2045C144.653 37.2348 145.017 35.606 145.744 34.3182C146.472 33.0303 147.464 32 148.722 31.2273C149.979 30.4545 151.396 29.8712 152.972 29.4773C154.563 29.0682 156.206 28.7727 157.903 28.5909C159.949 28.3788 161.608 28.1894 162.881 28.0227C164.153 27.8409 165.078 27.5682 165.653 27.2045C166.244 26.8257 166.54 26.2424 166.54 25.4545V25.3182C166.54 23.606 166.032 22.2803 165.017 21.3409C164.002 20.4015 162.54 19.9318 160.631 19.9318C158.616 19.9318 157.017 20.3712 155.835 21.25C154.669 22.1288 153.881 23.1667 153.472 24.3636L145.79 23.2727C146.396 21.1515 147.396 19.3788 148.79 17.9545C150.184 16.5151 151.888 15.4394 153.903 14.7273C155.919 14 158.146 13.6363 160.585 13.6363C162.267 13.6363 163.941 13.8333 165.608 14.2273C167.275 14.6212 168.797 15.2727 170.176 16.1818C171.555 17.0757 172.661 18.2954 173.494 19.8409C174.343 21.3863 174.767 23.3182 174.767 25.6363V49H166.858V44.2045H166.585C166.085 45.1742 165.381 46.0833 164.472 46.9318C163.578 47.7651 162.449 48.4394 161.085 48.9545C159.737 49.4545 158.153 49.7045 156.335 49.7045ZM158.472 43.6591C160.123 43.6591 161.555 43.3333 162.767 42.6818C163.979 42.0151 164.911 41.1364 165.563 40.0454C166.229 38.9545 166.563 37.7651 166.563 36.4773V32.3636C166.305 32.5757 165.866 32.7727 165.244 32.9545C164.638 33.1363 163.956 33.2954 163.199 33.4318C162.441 33.5682 161.691 33.6894 160.949 33.7954C160.206 33.9015 159.563 33.9924 159.017 34.0682C157.79 34.2348 156.691 34.5076 155.722 34.8863C154.752 35.2651 153.987 35.7954 153.426 36.4773C152.866 37.1439 152.585 38.0076 152.585 39.0682C152.585 40.5833 153.138 41.7273 154.244 42.5C155.35 43.2727 156.759 43.6591 158.472 43.6591Z" fill="white"/>
<path d="M191.267 2.45453V49H183.04V2.45453H191.267Z" fill="white"/>
<path d="M12.2728 126.705C10.0606 126.705 8.06822 126.311 6.29549 125.523C4.53791 124.72 3.14397 123.538 2.11367 121.977C1.09852 120.417 0.590942 118.492 0.590942 116.205C0.590942 114.235 0.954579 112.606 1.68185 111.318C2.40912 110.03 3.40155 109 4.65912 108.227C5.9167 107.455 7.33337 106.871 8.90912 106.477C10.5 106.068 12.144 105.773 13.8409 105.591C15.8864 105.379 17.5455 105.189 18.8182 105.023C20.0909 104.841 21.0152 104.568 21.5909 104.205C22.1819 103.826 22.4773 103.242 22.4773 102.455V102.318C22.4773 100.606 21.9697 99.2803 20.9546 98.3409C19.9394 97.4015 18.4773 96.9318 16.5682 96.9318C14.5531 96.9318 12.9546 97.3712 11.7728 98.25C10.6061 99.1288 9.81822 100.167 9.40912 101.364L1.72731 100.273C2.33337 98.1515 3.33337 96.3788 4.72731 94.9545C6.12125 93.5151 7.82579 92.4394 9.84094 91.7273C11.8561 91 14.0834 90.6364 16.5228 90.6364C18.2046 90.6364 19.8788 90.8333 21.5455 91.2273C23.2122 91.6212 24.7349 92.2727 26.1137 93.1818C27.4925 94.0757 28.5985 95.2954 29.4319 96.8409C30.2803 98.3864 30.7046 100.318 30.7046 102.636V126H22.7955V121.205H22.5228C22.0228 122.174 21.3182 123.083 20.4091 123.932C19.5152 124.765 18.3864 125.439 17.0228 125.955C15.6743 126.455 14.0909 126.705 12.2728 126.705ZM14.4091 120.659C16.0606 120.659 17.4925 120.333 18.7046 119.682C19.9167 119.015 20.8485 118.136 21.5 117.045C22.1667 115.955 22.5 114.765 22.5 113.477V109.364C22.2425 109.576 21.8031 109.773 21.1819 109.955C20.5758 110.136 19.894 110.295 19.1364 110.432C18.3788 110.568 17.6288 110.689 16.8864 110.795C16.144 110.902 15.5 110.992 14.9546 111.068C13.7273 111.235 12.6288 111.508 11.6591 111.886C10.6894 112.265 9.92428 112.795 9.36367 113.477C8.80306 114.144 8.52276 115.008 8.52276 116.068C8.52276 117.583 9.07579 118.727 10.1819 119.5C11.2879 120.273 12.697 120.659 14.4091 120.659Z" fill="white"/>
<path d="M38.9773 126V91.0909H46.9546V96.9091H47.3182C47.9546 94.8939 49.0455 93.3409 50.5909 92.25C52.1516 91.1439 53.9319 90.5909 55.9319 90.5909C56.3864 90.5909 56.894 90.6136 57.4546 90.6591C58.0303 90.6894 58.5076 90.7424 58.8864 90.8182V98.3863C58.5379 98.2651 57.9849 98.1591 57.2273 98.0682C56.4849 97.9621 55.7652 97.9091 55.0682 97.9091C53.5682 97.9091 52.2197 98.2348 51.0228 98.8863C49.8409 99.5227 48.9091 100.409 48.2273 101.545C47.5455 102.682 47.2046 103.992 47.2046 105.477V126H38.9773Z" fill="white"/>
<path d="M83.6591 91.0909V97.4545H63.5909V91.0909H83.6591ZM68.5455 82.7273H76.7728V115.5C76.7728 116.606 76.9394 117.455 77.2728 118.045C77.6212 118.621 78.0758 119.015 78.6364 119.227C79.197 119.439 79.8182 119.545 80.5 119.545C81.0152 119.545 81.4849 119.508 81.9091 119.432C82.3485 119.356 82.6818 119.288 82.9091 119.227L84.2955 125.659C83.8561 125.811 83.2273 125.977 82.4091 126.159C81.6061 126.341 80.6212 126.447 79.4546 126.477C77.394 126.538 75.5379 126.227 73.8864 125.545C72.2349 124.848 70.9243 123.773 69.9546 122.318C69 120.864 68.5303 119.045 68.5455 116.864V82.7273Z" fill="white"/>
</svg>
