<svg width="151" height="142" viewBox="0 0 151 142" fill="none" xmlns="http://www.w3.org/2000/svg">
<path d="M39.7484 48.2957C50.2263 55.0362 61.4104 60.2594 72.8847 65.2623C92.2496 58.6505 109.686 49.8129 127.139 40.5684C133.701 37.0906 140.293 33.576 146.975 30.0877C138.666 23.4444 114.378 26.8881 107.47 26.8881C87.6833 26.9144 67.9025 26.8881 48.0883 26.8619C42.3665 26.5417 36.3935 26.4052 30.814 26.8881H24.8299C20.8218 26.9065 15.2898 26.581 10.8575 27.959C17.0901 31.6888 22.7672 36.0433 28.5142 40.3453C32.1705 43.0803 35.8604 45.7917 39.7484 48.2957Z" fill="black"/>
<path d="M31.8357 52.771C22.5412 46.4269 14.1957 39.1563 4.31516 33.6154C2.59303 37.983 3.52806 43.7864 2.94192 47.8469C2.9168 48.007 2.97263 48.1409 2.97263 48.2748C1.17793 55.4771 1.17793 63.3724 0.97697 70.3333C0.773218 77.079 -0.733991 86.7932 0.452238 95.1846C0.343384 99.2241 0.301517 103.466 1.24213 107.017C19.6831 93.3394 39.288 79.7589 59.052 67.9028C49.604 63.4905 40.4854 58.6741 31.8357 52.771Z" fill="black"/>
<path d="M150.397 54.4849C150.71 48.9966 151.511 42.9806 150.52 37.4108C132.009 47.0726 114.263 56.9706 95.2361 65.215C106.074 73.735 117.124 81.8875 127.973 90.2947C132.553 93.8434 137.095 97.4472 141.569 101.143C143.19 102.479 144.793 103.838 146.392 105.206C146.883 104.293 147.335 103.335 147.69 102.266C149.685 96.3579 148.882 89.2894 148.39 82.7275C148.454 81.2865 148.527 79.8376 148.6 78.3835C149.149 70.4226 149.953 62.4852 150.397 54.4849Z" fill="black"/>
<path d="M86.6924 68.7375C82.4834 70.4042 78.2213 72.0158 73.8337 73.483C72.2176 74.0237 70.8918 73.6458 69.9819 72.8163C69.3009 72.5198 68.6199 72.2153 67.9416 71.9161C67.6792 72.1759 67.3918 72.42 67.0289 72.6326C46.1652 84.9008 25.2876 99.3029 5.88647 113.734C7.58348 114.752 9.7801 115.369 12.6605 115.401C25.3462 115.545 38.0542 115.456 50.7594 115.343C72.7256 115.899 94.7308 115.49 116.691 115.975C125.179 116.157 134.44 115.624 140.857 111.314C123.672 96.6046 105.237 83.6146 87.4767 69.5511C87.1502 69.2939 86.9073 69.0183 86.6924 68.7375Z" fill="black"/>
</svg>
