<svg width="130" height="130" viewBox="0 0 130 130" fill="none" xmlns="http://www.w3.org/2000/svg">
<path d="M119.666 2.96994H10.347C4.62425 2.96994 0 7.58985 0 13.3039V116.7C0 122.397 4.62425 127.03 10.347 127.03H119.666C125.363 127.03 130 122.401 130 116.7V13.3039C129.996 7.58985 125.358 2.96994 119.666 2.96994ZM87.3831 39.8033C84.6954 38.2315 82.5635 36.9896 79.8844 36.9896C77.2619 36.9896 75.0214 37.6453 73.8751 38.7482C72.7288 39.8424 72.16 41.9613 72.16 45.0919V49.7248H86.1804L83.1453 62.6119H72.16V105.433H54.5488V62.6119H46.3293V49.7248H54.5574V44.8053C54.5574 39.6253 55.1784 36.525 56.4028 33.9676C57.6229 31.4188 59.9893 28.5792 63.2806 26.9726C66.5675 25.3704 71.4305 24.5628 76.4629 24.5628C81.6212 24.5628 85.6506 26.2822 90.5919 27.6673L87.3831 39.8033Z" fill="black"/>
</svg>
