<svg width="143" height="155" viewBox="0 0 143 155" fill="none" xmlns="http://www.w3.org/2000/svg">
<path d="M137.426 32.3225C132.264 25.6715 122.734 22.9585 104.533 22.9585H38.4652C19.8479 22.9585 10.1562 25.8465 5.01376 32.9275C0 39.8315 0 50.004 0 64.083V90.9175C0 118.193 5.9488 132.042 38.4652 132.042H104.534C120.317 132.042 129.063 129.647 134.722 123.778C140.524 117.759 143 107.931 143 90.9175V64.083C143 49.2355 142.612 39.003 137.426 32.3225ZM91.8065 81.205L61.8051 98.2005C61.1343 98.5805 60.4009 98.769 59.6684 98.769C58.839 98.769 58.0114 98.527 57.2784 98.046C55.8982 97.1395 55.0555 95.518 55.0555 93.769V59.887C55.0555 58.141 55.8959 56.521 57.2733 55.614C58.6512 54.707 60.3649 54.645 61.7945 55.45L91.7959 72.336C93.3223 73.195 94.2808 74.903 94.2831 76.7665C94.285 78.6315 93.3306 80.342 91.8065 81.205Z" fill="black"/>
</svg>
